<svg xmlns="http://www.w3.org/2000/svg" viewBox="0 0 1476 1438.05"><defs><style>.cls-1{fill:#1f8a70;}</style></defs><g id="레이어_2" data-name="레이어 2"><g id="레이어_1-2" data-name="레이어 1"><path class="cls-1" d="M1476,719c0,78.53-32,151.07-55,221.93-23.84,73.45-41.45,150.75-85.94,211.88C1290.16,1214.58,1221.79,1255,1160,1300c-61.13,44.49-120.48,97.3-193.93,121.14C895.25,1444.1,816.53,1437,738,1437s-157.25,7.07-228.11-15.94C436.44,1397.25,377.09,1344.44,316,1300c-61.75-44.93-130.12-85.37-175.06-147.11C96.41,1091.71,78.8,1014.41,55,941,32,870.1,0,797.56,0,719S32,568,55,497.09C78.8,423.64,96.41,346.35,140.9,285.21,185.84,223.47,254.21,183,316,138.1,377.09,93.61,436.44,40.81,509.89,17,580.75-6,659.47,1,738,1S895.25-6,966.11,17c73.45,23.85,132.8,76.65,193.93,121.14,61.75,44.93,130.12,85.37,175.06,147.11,44.49,61.14,62.1,138.43,85.94,211.88C1444.05,568,1476,640.49,1476,719Z"/></g></g></svg>